<svg width="22" height="21" fill="none" xmlns="http://www.w3.org/2000/svg"><path d="M1.125 8.376L5 10.05c.517-1.3 1.046-2.4 1.588-3.3.542-.9 1.27-1.9 2.187-3L7.45 3.476A2.147 2.147 0 005.4 4.1L1.125 8.376zm5.425 2.35L10.6 14.8a17.609 17.609 0 003.588-1.725 18.323 18.323 0 003.062-2.425 14.074 14.074 0 003.275-5.075c.717-1.917.934-3.725.65-5.425-1.7-.284-3.508-.063-5.425.662A14.223 14.223 0 0010.675 4.1 16.959 16.959 0 008.25 7.15a18.098 18.098 0 00-1.7 3.575zm7.125-3.1c-.367-.367-.55-.821-.55-1.363s.184-1.004.55-1.387a1.89 1.89 0 011.387-.575c.542 0 1.005.191 1.388.575.384.383.575.845.575 1.387s-.191.996-.575 1.363a1.891 1.891 0 01-1.388.575 1.89 1.89 0 01-1.387-.575zM12.95 20.2l4.275-4.275c.267-.267.458-.584.575-.95a2.06 2.06 0 00.05-1.1l-.25-1.35c-1.1.933-2.108 1.67-3.025 2.213-.916.541-2.016 1.07-3.3 1.587L12.95 20.2zM2.8 14.05a3.1 3.1 0 012.25-.937 2.979 2.979 0 012.25.937c.634.616.95 1.366.95 2.25a3.02 3.02 0 01-.95 2.25c-.45.45-1.2.837-2.25 1.162-1.05.325-2.458.596-4.225.813.217-1.767.488-3.175.813-4.225.325-1.05.712-1.8 1.162-2.25z" fill="#7ACECE"/></svg>