<svg width="58" height="6" fill="none" xmlns="http://www.w3.org/2000/svg"><path d="M3.068 1.213V4.22c-.029.327.038.663.19.96a.861.861 0 00.684.317c.095.01.142.058.142.144 0 .058-.038.096-.123.096h-.095l-.295-.01-.494-.028h-.161c-.152 0-.295 0-.409.01l-.873.047c-.095.01-.152.02-.19.02-.086 0-.124-.039-.124-.106 0-.038.01-.086.038-.115a.443.443 0 01.152-.039c.18 0 .352-.086.475-.22a.843.843 0 00.171-.557V.983c0-.211-.114-.317-.332-.317-.361-.02-.732.02-1.074.115a.535.535 0 00-.275.202 2.66 2.66 0 00-.19.547l-.029.115c-.028.106-.076.164-.133.164C.038 1.809 0 1.77 0 1.684c.01-.106.019-.211.038-.307l.038-.346.047-.355.029-.24c0-.087.066-.154.142-.154h.02c.028 0 .075 0 .132.01.105.01.247.01.437.01l.808.009.959.01a49.436 49.436 0 001.966-.05c.133-.01.228-.01.266-.01.142 0 .218.058.228.183l.019.288c0 .048.019.154.038.327.019.115.028.23.028.336 0 .086-.038.134-.104.134-.057 0-.105-.048-.124-.153a.87.87 0 00-.313-.538A1.15 1.15 0 003.97.676a1.82 1.82 0 00-.75.096c-.105.038-.152.192-.152.441zM7.057 4.47l.029.403a.787.787 0 00.228.47.67.67 0 00.474.164c.133 0 .19.038.19.125 0 .076-.085.115-.256.115-.076 0-.18-.01-.314-.02a6.01 6.01 0 00-.835-.057c-.21 0-.418.01-.627.038-.095.02-.19.03-.285.039-.057 0-.105-.029-.114-.087l-.01-.028.114-.096a.685.685 0 00.38-.25 1 1 0 00.095-.5V1.262a.828.828 0 00-.123-.518.702.702 0 00-.466-.211 1.232 1.232 0 01-.256-.058c-.038-.02-.057-.058-.057-.106 0-.077.028-.115.095-.105l.209.028c.161.03.313.039.475.03.142 0 .332-.01.55-.03l.287-.02c.266-.019.474-.029.626-.029.086 0 .133.03.133.097 0 .038 0 .067-.019.096a.2.2 0 01-.095.038.572.572 0 00-.36.163.829.829 0 00-.076.452l.01 3.38zm3.97-4.312c.532.02 1.055.154 1.539.384.095.048.19.077.285.096.038 0 .076-.01.095-.038l.047-.039a.121.121 0 01.095-.038c.076 0 .114.048.114.144v.278l-.019.548.01.288c.01.067.01.144.028.23v.068c0 .086-.038.124-.123.124-.057 0-.095-.057-.114-.163a1.826 1.826 0 00-.504-.931 1.879 1.879 0 00-1.434-.644 1.495 1.495 0 00-1.282.644 2.775 2.775 0 00-.484 1.7 3.58 3.58 0 00.494 1.92c.332.519.74.778 1.225.778.19-.01.37-.039.55-.096.181-.048.352-.115.504-.211a.57.57 0 00.218-.298c.048-.202.067-.413.057-.615a.972.972 0 00-.17-.662.962.962 0 00-.637-.212c-.085-.01-.123-.048-.123-.115 0-.077.047-.115.142-.115.029 0 .076 0 .143.01a9.555 9.555 0 001.615.01c.094-.02.199-.02.294-.03.095 0 .142.039.142.106s-.047.106-.142.125a.4.4 0 00-.314.25c-.066.22-.095.441-.085.672 0 .086 0 .173.01.259.009.134.018.22.018.278a.254.254 0 01-.047.183.422.422 0 01-.2.115c-.057.02-.266.115-.627.269a4.238 4.238 0 01-1.643.413 2.256 2.256 0 01-1.738-.73 2.645 2.645 0 01-.674-1.882 3.176 3.176 0 01.779-2.17c.503-.596 1.215-.922 1.956-.903zm4.806 1.018v.864c-.01.163.01.317.057.47.038.068.124.097.257.097h.627a.684.684 0 00.607-.432l.095-.192a.123.123 0 01.114-.077c.057 0 .086.038.086.105 0 .02 0 .077-.01.173-.01.067-.01.125-.01.173 0 .087.01.288.039.595.019.202.019.385.019.538l.01.202c0 .029 0 .048-.01.077a.086.086 0 01-.067.029c-.066.01-.104-.048-.123-.154a.9.9 0 00-.238-.519A.506.506 0 0017.04 3a5.331 5.331 0 00-.55-.028h-.266a.406.406 0 00-.257.057.414.414 0 00-.095.23 7.11 7.11 0 00-.028.635v.355c-.01.269.019.547.085.806a.39.39 0 00.437.308c1.064 0 1.767-.327 2.09-.99.019-.028.038-.047.047-.047.029-.01.057.01.076.028.02.02.038.058.038.087 0 .269-.076.528-.209.759a.978.978 0 01-.437.441 1.57 1.57 0 01-.693.135c-.19 0-.37-.01-.56-.03l-.456-.038a6.415 6.415 0 00-.684-.028c-.19 0-.485.01-.874.038-.104.01-.18.01-.228.01-.047.01-.095-.03-.104-.077v-.01c0-.048.028-.086.085-.115a.761.761 0 00.304-.182.758.758 0 00.123-.346c.038-.192.048-.384.048-.576V1.27a.972.972 0 00-.142-.605 1.04 1.04 0 00-.599-.22c-.057 0-.104-.049-.104-.116 0-.058.047-.096.133-.096.019 0 .057 0 .123.01h.19l.399.019 1.491.019c.864 0 1.387-.01 1.586-.039h.057c.076 0 .114.048.114.135 0 .058.01.173.029.326.019.23.028.404.028.5 0 .201-.047.307-.152.307-.047 0-.076-.058-.076-.173a.632.632 0 00-.285-.576 1.799 1.799 0 00-.92-.173h-.485l-.266.029c-.133.038-.2.173-.2.403l-.019.154zm4.759 2.977a2.37 2.37 0 00.142 1.027.632.632 0 00.542.308c.114.01.161.057.161.134 0 .077-.047.115-.133.115-.028 0-.085 0-.161-.01a6.46 6.46 0 00-1.12-.01l-.334.03-.265.02a1.11 1.11 0 01-.152.009c-.095 0-.143-.039-.143-.106-.01-.048.029-.096.076-.115a.704.704 0 00.37-.221.75.75 0 00.105-.432v-.375l.01-.153V1.492a1.169 1.169 0 00-.124-.644.854.854 0 00-.627-.316c-.104-.02-.161-.068-.161-.135a.098.098 0 01.085-.115h.029c.047 0 .095 0 .142.01.219.019.447.038.665.028.266 0 .589-.019.969-.048.446-.038.75-.048.921-.048.447-.019.893.135 1.244.413.314.25.504.634.494 1.037 0 .26-.076.51-.218.72a1.35 1.35 0 01-.599.49c-.047.02-.076.048-.076.077a.29.29 0 00.038.096c.02.039.057.096.105.183l.351.633.409.73c.095.192.218.365.37.51a.576.576 0 00.39.143c.057 0 .113 0 .17-.02.029-.009.058-.009.086-.009.047 0 .076.03.076.096 0 .077-.104.164-.323.26a1.32 1.32 0 01-.57.144.99.99 0 01-.75-.404 8.113 8.113 0 01-.893-1.526 1.898 1.898 0 00-.351-.557.682.682 0 00-.447-.116h-.247l-.18.03c-.038.018-.057.086-.057.191l-.02.807zm0-3.111v1.382c-.01.116.01.221.066.327.095.057.2.086.314.067.294.01.58 0 .873-.029a.586.586 0 00.314-.163.903.903 0 00.285-.73A1.336 1.336 0 0021.152.512h-.095a.48.48 0 00-.37.116.623.623 0 00-.095.413z" fill="#E67B26"/><path d="M28.566.162c.532.02 1.064.154 1.539.384.095.048.19.077.285.096.037 0 .075-.01.095-.038l.047-.039a.121.121 0 01.095-.038c.076 0 .114.048.114.144V.95l-.02.547.01.288c.01.067.01.144.02.23v.068c0 .086-.039.125-.124.125-.057 0-.095-.058-.114-.164a1.76 1.76 0 00-.503-.931 1.88 1.88 0 00-1.435-.644 1.52 1.52 0 00-1.282.644 2.775 2.775 0 00-.484 1.7 3.58 3.58 0 00.494 1.92c.332.519.74.778 1.225.778.19-.01.37-.038.55-.096.181-.048.352-.115.514-.211a.57.57 0 00.218-.298c.048-.202.067-.413.057-.615a.972.972 0 00-.17-.662.962.962 0 00-.637-.211c-.086-.01-.124-.048-.124-.116 0-.077.048-.115.143-.115.028 0 .076 0 .142.01a9.555 9.555 0 001.615.01c.095-.02.2-.02.294-.03.095 0 .143.039.143.106s-.048.106-.143.125a.4.4 0 00-.313.25 1.78 1.78 0 00-.086.672c0 .086 0 .173.01.26.01.133.019.22.019.278a.254.254 0 01-.048.182.422.422 0 01-.199.115c-.057.02-.266.115-.627.27a4.238 4.238 0 01-1.643.412 2.256 2.256 0 01-1.738-.73 2.645 2.645 0 01-.675-1.882 3.176 3.176 0 01.78-2.17 2.45 2.45 0 011.956-.903zm4.806 4.302c0 .5.057.778.18.836a.903.903 0 00.39.048c.893 0 1.52-.27 1.89-.797.114-.164.19-.24.218-.24.048 0 .076.057.076.163 0 .336-.114.653-.323.902a.988.988 0 01-.788.356c-.066 0-.19-.01-.37-.02l-.475-.028-.428-.02c-.142-.009-.313-.009-.494-.009-.332 0-.655.02-.987.058-.105.01-.18.019-.219.019-.076 0-.114-.039-.114-.106 0-.048.038-.086.105-.105a.54.54 0 00.351-.279c.076-.211.114-.442.095-.672V1.247c0-.422-.17-.662-.522-.72L31.719.49c-.095-.02-.152-.058-.152-.125a.109.109 0 01.086-.125h.028c.038 0 .076.01.114.01.038 0 .086.01.152.019l.171.01c.162.019.285.028.361.028.2-.01.399-.019.608-.048.209-.019.418-.029.627-.029.161 0 .237.039.237.116 0 .067-.057.105-.17.105-.267.02-.4.202-.4.557l-.01 3.457zM39.346.153a2.795 2.795 0 011.985.72c.513.5.789 1.19.76 1.901a3.176 3.176 0 01-.779 2.17c-.503.577-1.206.874-2.099.874a2.785 2.785 0 01-2.042-.758 2.742 2.742 0 01-.77-2.017c0-.365.067-.73.19-1.076A2.54 2.54 0 0138.093.402c.4-.173.827-.25 1.254-.25zm-.285.297a1.45 1.45 0 00-1.234.596c-.295.393-.447.95-.447 1.651a3.44 3.44 0 00.56 2.036c.323.49.874.788 1.454.788.513.01.997-.23 1.291-.644a2.861 2.861 0 00.485-1.728c0-.423-.076-.836-.228-1.22a2.555 2.555 0 00-.599-.95A1.762 1.762 0 0039.061.45zm4.284.96c0-.537-.219-.825-.646-.883l-.18-.02c-.057-.009-.086-.047-.086-.114 0-.077.038-.116.114-.116h.095l.294.02c.247.01.4.019.466.019.19 0 .532-.02 1.035-.067.314-.03.57-.048.788-.048.475-.02.95.105 1.35.364.322.212.512.586.503.97a.98.98 0 01-.627.98c-.095.038-.143.077-.152.105 0 .048.047.077.152.097.304.048.58.201.779.432.19.24.294.547.285.864.018.47-.172.931-.523 1.248-.399.327-.902.49-1.415.461l-.798-.019-.617-.01c-.342 0-.684.01-1.026.048-.086.01-.171.02-.247.02-.076 0-.123-.039-.123-.106 0-.058.037-.096.104-.115.313-.058.475-.327.475-.826V1.41zm.902-.345v1.143c-.01.124.029.24.114.326a.608.608 0 00.39.096l.54.01.248-.01c.446-.058.674-.326.674-.816a1.287 1.287 0 00-.37-.96 1.35 1.35 0 00-.988-.365.68.68 0 00-.475.115.63.63 0 00-.133.46zm0 2.65v.663l.01.153.028.337c.029.384.333.576.903.576.56 0 .94-.135 1.149-.413.17-.24.256-.528.256-.816 0-.625-.275-1.009-.826-1.153a4.57 4.57 0 00-1.083-.125c-.19 0-.313.048-.36.135a1.868 1.868 0 00-.077.643zM50.84.71l1.795 4.167c.066.183.18.336.313.47.133.106.295.183.466.212.047.01.066.048.066.115 0 .077-.028.106-.095.106a.823.823 0 01-.152-.02 4.792 4.792 0 00-.978-.067c-.313-.01-.617.01-.921.068a.338.338 0 01-.105.019c-.057.01-.104-.029-.114-.087v-.028c0-.039.029-.068.086-.087a.684.684 0 00.313-.202.466.466 0 00.124-.307 3.521 3.521 0 00-.342-.98c-.076-.153-.152-.24-.238-.268a5.726 5.726 0 00-.902-.039h-.513l-.351.068c-.095.048-.21.22-.333.528l-.123.307a.65.65 0 00-.057.269c0 .336.228.528.693.586.095.01.152.048.143.115-.01.067-.057.106-.143.106-.066 0-.133-.01-.2-.02a3.848 3.848 0 00-.465-.057c-.123 0-.323.01-.598.038a6.26 6.26 0 01-.38.029c-.076 0-.114-.029-.114-.096 0-.058.038-.096.114-.125a.68.68 0 00.342-.25c.152-.24.275-.499.38-.758l1.073-2.506c.086-.202.143-.337.18-.413l.37-.759.19-.375v.01c.086-.202.143-.307.172-.307.038 0 .114.115.218.336l.086.202zm.152 2.487l-.513-1.22c-.124-.288-.21-.432-.266-.432-.029 0-.086.096-.171.278l-.076.164-.456 1.066-.047.096a.195.195 0 00-.029.105c0 .087.095.135.285.135h1.159c.095 0 .152-.03.152-.087a.18.18 0 00-.02-.067l-.018-.038zm4.264 1.267c0 .5.057.778.18.836a.877.877 0 00.38.048c.894 0 1.52-.27 1.89-.797.115-.164.19-.24.22-.24.047 0 .075.057.075.163 0 .336-.114.653-.323.902a.988.988 0 01-.788.356c-.066 0-.19-.01-.38-.02l-.475-.028-.427-.02c-.143-.009-.314-.009-.494-.009-.332 0-.655.02-.988.058-.104.01-.18.019-.218.019-.076 0-.114-.039-.114-.106 0-.048.038-.086.104-.105a.54.54 0 00.352-.279c.076-.211.104-.442.095-.672V1.247c0-.422-.171-.662-.523-.72L53.584.49c-.105-.02-.152-.058-.152-.125a.108.108 0 01.085-.125h.029c.038 0 .076.01.114.01.038 0 .085.01.152.019l.17.01c.162.019.286.028.362.028.123 0 .332-.019.608-.048.208-.019.417-.029.626-.029.162 0 .238.039.238.116 0 .067-.057.105-.171.105-.266.02-.4.202-.4.557l.01 3.457z" fill="#545456"/></svg>