<svg width="58" height="18" viewBox="0 0 58 18" fill="none" xmlns="http://www.w3.org/2000/svg">
<path fill-rule="evenodd" clip-rule="evenodd" d="M38.6228 3.88772V5.51987H35.8607V10.1827C35.8607 11.1732 36.4361 11.6685 37.391 11.6685C37.9074 11.6591 38.4175 11.5844 38.9121 11.4442L39.164 13.0951C38.6943 13.2788 37.8669 13.4065 37.1142 13.4065C35.1546 13.4065 33.9228 12.3101 33.9228 10.4163V5.51987H32.2556V3.88772H33.9539V0.897522H35.8358V3.88772H38.6228ZM28.0158 7.58809C26.8338 7.34514 26.3952 7.05235 26.3952 6.46988C26.3952 5.78152 27.0982 5.38282 28.5134 5.38282C29.487 5.38282 30.6037 5.59774 31.3626 5.92791L31.5679 4.25838C30.7872 3.91887 29.5679 3.69461 28.417 3.69461C26.0748 3.69461 24.5133 4.85954 24.5133 6.44185C24.5133 7.88089 25.3905 8.81844 27.0391 9.15172L28.4232 9.43205C29.6332 9.67501 30.1402 10.0145 30.1402 10.6468C30.1402 11.3663 29.4839 11.7152 28.0811 11.7152C26.98 11.7027 25.8913 11.4722 24.8773 11.0424L24.644 12.7057C25.4527 13.1418 26.7809 13.4034 28.2055 13.4034C30.4793 13.4034 32.019 12.5001 32.019 10.6157C32.019 8.99287 31.0049 8.19859 29.1013 7.80925L28.0158 7.58809ZM38.8845 8.55057C38.8845 5.82201 41.0121 3.69461 43.8613 3.69461C46.7105 3.69461 48.8381 5.82201 48.8381 8.55057C48.8381 11.2791 46.7136 13.4065 43.8644 13.4065C41.0152 13.4065 38.8876 11.2791 38.8876 8.55057H38.8845ZM40.8161 8.55057C40.8161 10.2699 42.0976 11.6 43.8644 11.6C45.6312 11.6 46.9096 10.2668 46.9096 8.55057C46.9096 6.8312 45.6312 5.50119 43.8644 5.50119C42.0976 5.50119 40.8192 6.8312 40.8192 8.55057H40.8161ZM50.4429 3.88771L52.869 7.1707L55.2983 3.88771H57.5223L54.0697 8.45088L57.6001 13.2103H55.3792L52.869 9.72483L50.362 13.2103H48.138L51.6684 8.45088L48.2157 3.88771H50.4429ZM16.0839 5.16167C16.7775 4.27707 17.832 3.69461 19.4214 3.69461C22.084 3.69461 24.1245 5.73479 24.1245 8.6004C24.1245 11.466 22.084 13.4065 19.4214 13.4065C17.832 13.4065 16.7775 12.8241 16.0839 11.9395V17.0976H14.1523V3.89084H16.0839V5.16167ZM16.0963 8.6004C16.0963 10.3198 17.3934 11.6778 19.1882 11.6778C20.9922 11.6778 22.1929 10.3167 22.196 8.6004C22.196 6.88104 20.9954 5.42332 19.1913 5.42332H19.1882C17.3841 5.42643 16.0963 6.88104 16.0963 8.6004ZM4.22093 8.88383C4.50399 8.68449 4.77149 8.46022 5.01722 8.21415C5.47757 7.75628 5.86016 7.22988 6.15255 6.65364V9.13925C6.15255 10.6842 7.00171 11.575 8.43565 11.575C9.91002 11.575 11.0702 10.6842 11.0702 9.13925V3.88771H12.9987V13.2103H11.0578V12.036C10.7467 12.5126 9.85714 13.4034 8.13082 13.4034C5.574 13.4034 4.21782 11.8117 4.21782 9.54729L4.22093 8.88383ZM0 9.95219V8.08332C1.126 8.0802 2.20534 7.6379 3.00784 6.85609C3.39977 6.46674 3.71393 6.00575 3.92855 5.49804C4.14317 4.98721 4.25515 4.44212 4.25515 3.89081H6.14944C6.14944 4.68819 5.9908 5.47623 5.67976 6.21133C5.37182 6.94642 4.91768 7.61298 4.34846 8.17365C3.18825 9.31366 1.62679 9.95219 0 9.95219Z" fill="#41246E"/>
</svg>
